<svg version="1.1" xmlns="http://www.w3.org/2000/svg" xmlns:xlink="http://www.w3.org/1999/xlink" width="48" height="48"><defs><linearGradient x1="14.22989" y1="17.78266" x2="54.98331" y2="51.43055" gradientUnits="userSpaceOnUse" id="color-1"><stop offset="0" stop-color="#000000" stop-opacity="0.3"></stop><stop offset="1" stop-color="#000000" stop-opacity="0"></stop></linearGradient><filter id="dropshadow-base"><feColorMatrix type="matrix" values="0 0 0 0 0  0 0 0 0 0  0 0 0 0 0  0 0 0 .8 0"></feColorMatrix> <feOffset dx="0" dy="1"></feOffset> <feGaussianBlur stdDeviation="1"></feGaussianBlur> <feComposite in="SourceGraphic"></feComposite></filter><filter id="dropshadow-banner" x="-10%" y="-10%" width="120%" height="130%"><feColorMatrix type="matrix" values="0 0 0 0 0  0 0 0 0 0  0 0 0 0 0  0 0 0 .4 0"></feColorMatrix> <feOffset dx="0" dy="1"></feOffset> <feGaussianBlur stdDeviation="0.5"></feGaussianBlur> <feComposite in="SourceGraphic"></feComposite></filter></defs><g fill="none" fill-rule="nonzero" stroke="none" stroke-width="none" stroke-linecap="butt" stroke-linejoin="miter" stroke-miterlimit="10" stroke-dasharray="" stroke-dashoffset="0" font-family="none" font-weight="none" font-size="none" text-anchor="none" style="mix-blend-mode: normal"><path d="M2,24c0,-12.15026 9.84974,-22 22,-22c12.15026,0 22,9.84974 22,22c0,12.15026 -9.84974,22 -22,22c-12.15026,0 -22,-9.84974 -22,-22z" id="base 1 5" fill="#264653" stroke-width="1"></path><path d="M29.42749,18.55935l14.587,14.587c-2.74998,6.00787 -8.12551,10.56292 -14.6585,12.19709l-15.1261,-15.1261l2.22048,0l-2.22048,-2.22048c0,-2.06949 4.14342,-3.10867 6.21735,-3.10867c0.21581,0 0.45403,0.01125 0.70766,0.03375l-2.59118,-2.59118c-0.4824,-0.4824 -0.78105,-1.14854 -0.78105,-1.88352c0,-1.46995 1.19461,-2.66457 2.66457,-2.66457c0.73276,0 1.39489,0.29685 1.87472,0.77669l2.68915,2.68915c-0.07985,-0.25296 -0.12292,-0.52215 -0.12292,-0.80126c0,-1.46995 1.19461,-2.66457 2.66457,-2.66457c0.73276,0 1.39489,0.29685 1.87472,0.77669z" fill="url(#color-1)" stroke-width="1"></path><path d="M27.55277,23.11181c1.46996,0 2.65569,-1.19462 2.65569,-2.66458c0,-1.46996 -1.18574,-2.66458 -2.65569,-2.66458c-1.46996,0 -2.66458,1.19462 -2.66458,2.66458c0,1.46996 1.19462,2.66458 2.66458,2.66458zM20.44723,23.11181c1.46996,0 2.65569,-1.19462 2.65569,-2.66458c0,-1.46996 -1.18574,-2.66458 -2.65569,-2.66458c-1.46996,0 -2.66458,1.19462 -2.66458,2.66458c0,1.46996 1.19462,2.66458 2.66458,2.66458zM20.44723,24.88819c-2.07393,0 -6.21734,1.03918 -6.21734,3.10867v2.22048h12.43468v-2.22048c0,-2.06949 -4.14341,-3.10867 -6.21734,-3.10867zM27.55277,24.88819c-0.25758,0 -0.54624,0.01776 -0.85711,0.04885c1.0303,0.74164 1.7453,1.74086 1.7453,3.05982v2.22048h5.32915v-2.22048c0,-2.06949 -4.14341,-3.10867 -6.21734,-3.10867z" fill="none" stroke-width="0"></path><path d="M24.88819,20.44723c0,-1.46996 1.19462,-2.66458 2.66458,-2.66458c1.46996,0 2.65569,1.19462 2.65569,2.66458c0,1.46996 -1.18574,2.66458 -2.65569,2.66458c-1.46996,0 -2.66458,-1.19462 -2.66458,-2.66458zM17.78266,20.44723c0,-1.46996 1.19462,-2.66458 2.66458,-2.66458c1.46996,0 2.65569,1.19462 2.65569,2.66458c0,1.46996 -1.18574,2.66458 -2.65569,2.66458c-1.46996,0 -2.66458,-1.19462 -2.66458,-2.66458zM26.66458,27.99686v2.22048h-12.43468v-2.22048c0,-2.06949 4.14341,-3.10867 6.21734,-3.10867c2.07393,0 6.21734,1.03918 6.21734,3.10867zM33.77011,27.99686v2.22048h-5.32915v-2.22048c0,-1.31896 -0.71499,-2.31818 -1.7453,-3.05982c0.31087,-0.03109 0.59953,-0.04885 0.85711,-0.04885c2.07393,0 6.21734,1.03918 6.21734,3.10867z" fill="#e76f51" stroke-width="0"></path><path d="M2,24c0,-12.15026 9.84974,-22 22,-22c12.15026,0 22,9.84974 22,22c0,12.15026 -9.84974,22 -22,22c-12.15026,0 -22,-9.84974 -22,-22z" id="base 1 1 1" fill="none" stroke-width="1"></path><g fill="#000000" stroke-width="1" font-family="Roboto, sans-serif" font-weight="400" font-size="14" text-anchor="start"></g><rect x="2" y="2" width="44" height="22" fill="none" stroke-width="1"></rect><path d="M2,24v-22h44v22z" fill="none" stroke-width="1"></path><path d="M2,24v-22h44v22z" fill="none" stroke-width="1"></path><path d="M2,24v-22h44v22z" fill="none" stroke-width="1"></path><path d="M2,24v-22h44v22z" fill="none" stroke-width="1"></path></g></svg>